<svg width="400" height="400" viewBox="0 0 400 400" fill="none" xmlns="http://www.w3.org/2000/svg">
  <rect width="400" height="400" fill="#F3F4F6"/>
  <path d="M200 180C211.046 180 220 171.046 220 160C220 148.954 211.046 140 200 140C188.954 140 180 148.954 180 160C180 171.046 188.954 180 200 180Z" fill="#D1D5DB"/>
  <path d="M240 220H160C154.477 220 150 224.477 150 230V260C150 265.523 154.477 270 160 270H240C245.523 270 250 265.523 250 260V230C250 224.477 245.523 220 240 220Z" fill="#D1D5DB"/>
  <text x="200" y="200" text-anchor="middle" font-family="Arial" font-size="14" fill="#6B7280">الصورة غير متوفرة</text>
</svg>